<mxfile host="app.diagrams.net" modified="2023-11-06T11:08:31.365Z" agent="Mozilla/5.0 (Windows NT 10.0; Win64; x64) AppleWebKit/537.36 (KHTML, like Gecko) Chrome/118.0.0.0 Safari/537.36 Edg/118.0.2088.69" version="21.6.6" etag="zKwUfUzuTaKV_5tZpqOg" type="github">
  <diagram name="第 1 页" id="wVwtTrFp-CgD_SP_6GcN">
    <mxGraphModel>
      <root>
        <mxCell id="0" />
        <mxCell id="1" parent="0" />
      </root>
    </mxGraphModel>
  </diagram>
</mxfile>
